<svg xmlns="http://www.w3.org/2000/svg" xmlns:xlink="http://www.w3.org/1999/xlink" width="1024" zoomAndPan="magnify" viewBox="0 0 768 767.999994" height="1024" preserveAspectRatio="xMidYMid meet" version="1.0"><defs><g/><clipPath id="af30f77fc7"><path d="M 709.128906 283.148438 L 760 283.148438 L 760 334 L 709.128906 334 Z M 709.128906 283.148438 " clip-rule="nonzero"/></clipPath></defs><g clip-path="url(#af30f77fc7)"><path fill="#5b8c6f" d="M 759.859375 308.515625 C 759.859375 309.34375 759.816406 310.175781 759.734375 311 C 759.65625 311.828125 759.53125 312.648438 759.371094 313.464844 C 759.207031 314.277344 759.007812 315.082031 758.765625 315.878906 C 758.523438 316.671875 758.246094 317.453125 757.925781 318.222656 C 757.609375 318.988281 757.253906 319.738281 756.863281 320.472656 C 756.472656 321.203125 756.042969 321.917969 755.582031 322.605469 C 755.121094 323.296875 754.628906 323.964844 754.101562 324.605469 C 753.574219 325.25 753.015625 325.863281 752.429688 326.449219 C 751.839844 327.039062 751.226562 327.59375 750.585938 328.121094 C 749.941406 328.648438 749.277344 329.144531 748.585938 329.605469 C 747.894531 330.066406 747.183594 330.492188 746.449219 330.886719 C 745.71875 331.277344 744.96875 331.632812 744.199219 331.949219 C 743.433594 332.265625 742.652344 332.546875 741.855469 332.789062 C 741.0625 333.027344 740.257812 333.230469 739.441406 333.394531 C 738.625 333.554688 737.804688 333.675781 736.980469 333.757812 C 736.152344 333.839844 735.324219 333.878906 734.492188 333.878906 C 733.660156 333.878906 732.832031 333.839844 732.007812 333.757812 C 731.179688 333.675781 730.359375 333.554688 729.542969 333.394531 C 728.730469 333.230469 727.925781 333.027344 727.128906 332.789062 C 726.335938 332.546875 725.554688 332.265625 724.785156 331.949219 C 724.019531 331.632812 723.269531 331.277344 722.535156 330.886719 C 721.804688 330.492188 721.089844 330.066406 720.402344 329.605469 C 719.710938 329.144531 719.042969 328.648438 718.402344 328.121094 C 717.757812 327.59375 717.144531 327.039062 716.558594 326.449219 C 715.96875 325.863281 715.414062 325.25 714.886719 324.605469 C 714.359375 323.964844 713.863281 323.296875 713.402344 322.605469 C 712.941406 321.917969 712.515625 321.203125 712.121094 320.472656 C 711.730469 319.738281 711.375 318.988281 711.058594 318.222656 C 710.742188 317.453125 710.460938 316.671875 710.21875 315.878906 C 709.980469 315.082031 709.777344 314.277344 709.613281 313.464844 C 709.453125 312.648438 709.332031 311.828125 709.25 311 C 709.167969 310.175781 709.128906 309.34375 709.128906 308.515625 C 709.128906 307.683594 709.167969 306.855469 709.25 306.027344 C 709.332031 305.203125 709.453125 304.382812 709.613281 303.566406 C 709.777344 302.75 709.980469 301.945312 710.21875 301.152344 C 710.460938 300.355469 710.742188 299.574219 711.058594 298.808594 C 711.375 298.039062 711.730469 297.289062 712.121094 296.558594 C 712.515625 295.824219 712.941406 295.113281 713.402344 294.421875 C 713.863281 293.730469 714.359375 293.066406 714.886719 292.421875 C 715.414062 291.78125 715.96875 291.167969 716.558594 290.578125 C 717.144531 289.992188 717.757812 289.433594 718.402344 288.90625 C 719.042969 288.378906 719.710938 287.886719 720.402344 287.425781 C 721.089844 286.964844 721.804688 286.535156 722.535156 286.144531 C 723.269531 285.753906 724.019531 285.398438 724.785156 285.082031 C 725.554688 284.761719 726.335938 284.484375 727.128906 284.242188 C 727.925781 284 728.730469 283.800781 729.542969 283.636719 C 730.359375 283.476562 731.179688 283.351562 732.007812 283.273438 C 732.832031 283.191406 733.660156 283.148438 734.492188 283.148438 C 735.324219 283.148438 736.152344 283.191406 736.980469 283.273438 C 737.804688 283.351562 738.625 283.476562 739.441406 283.636719 C 740.257812 283.800781 741.0625 284 741.855469 284.242188 C 742.652344 284.484375 743.433594 284.761719 744.199219 285.082031 C 744.96875 285.398438 745.71875 285.753906 746.449219 286.144531 C 747.183594 286.535156 747.894531 286.964844 748.585938 287.425781 C 749.277344 287.886719 749.941406 288.378906 750.585938 288.90625 C 751.226562 289.433594 751.839844 289.992188 752.429688 290.578125 C 753.015625 291.167969 753.574219 291.78125 754.101562 292.421875 C 754.628906 293.066406 755.121094 293.730469 755.582031 294.421875 C 756.042969 295.113281 756.472656 295.824219 756.863281 296.558594 C 757.253906 297.289062 757.609375 298.039062 757.925781 298.808594 C 758.246094 299.574219 758.523438 300.355469 758.765625 301.152344 C 759.007812 301.945312 759.207031 302.75 759.371094 303.566406 C 759.53125 304.382812 759.65625 305.203125 759.734375 306.027344 C 759.816406 306.855469 759.859375 307.683594 759.859375 308.515625 Z M 759.859375 308.515625 " fill-opacity="1" fill-rule="nonzero"/></g><g fill="#374151" fill-opacity="1"><g transform="translate(11.285948, 458.499989)"><g><path d="M 14.703125 0 L 14.703125 -151.203125 L 43.265625 -151.203125 L 43.265625 -81.484375 L 100.796875 -151.203125 L 135.65625 -151.203125 L 72.453125 -76.65625 L 139.65625 0 L 103.53125 0 L 43.265625 -68.875 L 43.265625 0 Z M 14.703125 0 "/></g></g></g><g fill="#374151" fill-opacity="1"><g transform="translate(150.936234, 458.499989)"><g><path d="M 16.796875 0 L 16.796875 -154.34375 L 45.359375 -154.34375 L 45.359375 0 Z M 16.796875 0 "/></g></g></g><g fill="#374151" fill-opacity="1"><g transform="translate(213.096383, 458.499989)"><g><path d="M 46.203125 3.15625 C 38.078125 3.15625 31.195312 1.597656 25.5625 -1.515625 C 19.925781 -4.628906 15.65625 -8.796875 12.75 -14.015625 C 9.851562 -19.234375 8.40625 -24.992188 8.40625 -31.296875 C 8.40625 -36.546875 9.207031 -41.335938 10.8125 -45.671875 C 12.425781 -50.015625 15.035156 -53.847656 18.640625 -57.171875 C 22.242188 -60.492188 27.09375 -63.273438 33.1875 -65.515625 C 37.382812 -67.054688 42.382812 -68.421875 48.1875 -69.609375 C 54 -70.804688 60.578125 -71.945312 67.921875 -73.03125 C 75.273438 -74.113281 83.363281 -75.320312 92.1875 -76.65625 L 81.90625 -70.984375 C 81.90625 -77.703125 80.289062 -82.632812 77.0625 -85.78125 C 73.84375 -88.9375 68.457031 -90.515625 60.90625 -90.515625 C 56.695312 -90.515625 52.316406 -89.5 47.765625 -87.46875 C 43.222656 -85.4375 40.039062 -81.832031 38.21875 -76.65625 L 12.390625 -84.84375 C 15.253906 -94.21875 20.640625 -101.84375 28.546875 -107.71875 C 36.460938 -113.601562 47.25 -116.546875 60.90625 -116.546875 C 70.914062 -116.546875 79.800781 -115.003906 87.5625 -111.921875 C 95.332031 -108.847656 101.210938 -103.53125 105.203125 -95.96875 C 107.441406 -91.769531 108.769531 -87.566406 109.1875 -83.359375 C 109.613281 -79.160156 109.828125 -74.472656 109.828125 -69.296875 L 109.828125 0 L 84.84375 0 L 84.84375 -23.3125 L 88.40625 -18.484375 C 82.875 -10.847656 76.90625 -5.332031 70.5 -1.9375 C 64.101562 1.457031 56.003906 3.15625 46.203125 3.15625 Z M 52.296875 -19.3125 C 57.546875 -19.3125 61.972656 -20.238281 65.578125 -22.09375 C 69.179688 -23.957031 72.050781 -26.078125 74.1875 -28.453125 C 76.320312 -30.835938 77.773438 -32.832031 78.546875 -34.4375 C 80.015625 -37.519531 80.867188 -41.109375 81.109375 -45.203125 C 81.359375 -49.296875 81.484375 -52.707031 81.484375 -55.4375 L 89.875 -53.34375 C 81.40625 -51.9375 74.546875 -50.757812 69.296875 -49.8125 C 64.046875 -48.875 59.8125 -48.019531 56.59375 -47.25 C 53.375 -46.476562 50.539062 -45.640625 48.09375 -44.734375 C 45.289062 -43.609375 43.03125 -42.398438 41.3125 -41.109375 C 39.601562 -39.816406 38.34375 -38.398438 37.53125 -36.859375 C 36.726562 -35.316406 36.328125 -33.597656 36.328125 -31.703125 C 36.328125 -29.117188 36.972656 -26.898438 38.265625 -25.046875 C 39.566406 -23.191406 41.40625 -21.769531 43.78125 -20.78125 C 46.164062 -19.800781 49.003906 -19.3125 52.296875 -19.3125 Z M 52.296875 -19.3125 "/></g></g></g><g fill="#374151" fill-opacity="1"><g transform="translate(335.526621, 458.499989)"><g><path d="M 14.703125 0 L 14.703125 -113.40625 L 39.90625 -113.40625 L 39.90625 -85.6875 L 37.171875 -89.25 C 38.640625 -93.164062 40.597656 -96.734375 43.046875 -99.953125 C 45.492188 -103.179688 48.503906 -105.84375 52.078125 -107.9375 C 54.804688 -109.613281 57.78125 -110.925781 61 -111.875 C 64.21875 -112.820312 67.539062 -113.414062 70.96875 -113.65625 C 74.40625 -113.90625 77.835938 -113.820312 81.265625 -113.40625 L 81.265625 -86.734375 C 78.117188 -87.710938 74.460938 -88.039062 70.296875 -87.71875 C 66.128906 -87.40625 62.367188 -86.445312 59.015625 -84.84375 C 55.648438 -83.300781 52.8125 -81.25 50.5 -78.6875 C 48.195312 -76.132812 46.445312 -73.125 45.25 -69.65625 C 44.0625 -66.195312 43.46875 -62.296875 43.46875 -57.953125 L 43.46875 0 Z M 14.703125 0 "/></g></g></g><g fill="#374151" fill-opacity="1"><g transform="translate(409.661167, 458.499989)"><g><path d="M 76.4375 0 C 70.070312 1.332031 63.789062 1.859375 57.59375 1.578125 C 51.394531 1.296875 45.863281 -0.03125 41 -2.40625 C 36.132812 -4.789062 32.441406 -8.503906 29.921875 -13.546875 C 27.890625 -17.742188 26.785156 -21.992188 26.609375 -26.296875 C 26.441406 -30.609375 26.359375 -35.53125 26.359375 -41.0625 L 26.359375 -144.90625 L 41.6875 -144.90625 L 41.6875 -41.6875 C 41.6875 -36.925781 41.738281 -32.953125 41.84375 -29.765625 C 41.945312 -26.578125 42.664062 -23.757812 44 -21.3125 C 46.519531 -16.625 50.523438 -13.820312 56.015625 -12.90625 C 61.515625 -12 68.320312 -12.210938 76.4375 -13.546875 Z M 2.09375 -100.171875 L 2.09375 -113.40625 L 76.4375 -113.40625 L 76.4375 -100.171875 Z M 2.09375 -100.171875 "/></g></g></g><g fill="#374151" fill-opacity="1"><g transform="translate(489.566318, 458.499989)"><g><path d="M 62.6875 3.15625 C 51.625 3.15625 42.050781 0.707031 33.96875 -4.1875 C 25.882812 -9.09375 19.601562 -15.988281 15.125 -24.875 C 10.644531 -33.769531 8.40625 -44.203125 8.40625 -56.171875 C 8.40625 -68.566406 10.609375 -79.273438 15.015625 -88.296875 C 19.421875 -97.328125 25.628906 -104.289062 33.640625 -109.1875 C 41.660156 -114.09375 51.132812 -116.546875 62.0625 -116.546875 C 73.257812 -116.546875 82.8125 -113.972656 90.71875 -108.828125 C 98.625 -103.679688 104.609375 -96.3125 108.671875 -86.71875 C 112.734375 -77.132812 114.585938 -65.691406 114.234375 -52.390625 L 98.484375 -52.390625 L 98.484375 -57.859375 C 98.203125 -72.554688 95.035156 -83.648438 88.984375 -91.140625 C 82.929688 -98.628906 74.09375 -102.375 62.46875 -102.375 C 50.289062 -102.375 40.960938 -98.414062 34.484375 -90.5 C 28.015625 -82.59375 24.78125 -71.328125 24.78125 -56.703125 C 24.78125 -42.421875 28.015625 -31.34375 34.484375 -23.46875 C 40.960938 -15.59375 50.15625 -11.65625 62.0625 -11.65625 C 70.175781 -11.65625 77.257812 -13.523438 83.3125 -17.265625 C 89.375 -21.015625 94.15625 -26.425781 97.65625 -33.5 L 112.03125 -27.9375 C 107.550781 -18.0625 100.953125 -10.410156 92.234375 -4.984375 C 83.523438 0.441406 73.675781 3.15625 62.6875 3.15625 Z M 19.3125 -52.390625 L 19.3125 -65.3125 L 105.9375 -65.3125 L 105.9375 -52.390625 Z M 19.3125 -52.390625 "/></g></g></g><g fill="#374151" fill-opacity="1"><g transform="translate(612.311578, 458.499989)"><g><path d="M 58.6875 3.15625 C 48.125 3.15625 39.097656 0.515625 31.609375 -4.765625 C 24.117188 -10.054688 18.378906 -17.21875 14.390625 -26.25 C 10.398438 -35.28125 8.40625 -45.46875 8.40625 -56.8125 C 8.40625 -68.070312 10.378906 -78.21875 14.328125 -87.25 C 18.285156 -96.28125 23.972656 -103.421875 31.390625 -108.671875 C 38.816406 -113.921875 47.707031 -116.546875 58.0625 -116.546875 C 68.707031 -116.546875 77.664062 -113.957031 84.9375 -108.78125 C 92.21875 -103.601562 97.726562 -96.515625 101.46875 -87.515625 C 105.21875 -78.523438 107.09375 -68.289062 107.09375 -56.8125 C 107.09375 -45.539062 105.238281 -35.367188 101.53125 -26.296875 C 97.820312 -17.234375 92.363281 -10.054688 85.15625 -4.765625 C 77.945312 0.515625 69.125 3.15625 58.6875 3.15625 Z M 60.265625 -11.234375 C 68.316406 -11.234375 74.96875 -13.191406 80.21875 -17.109375 C 85.46875 -21.035156 89.382812 -26.445312 91.96875 -33.34375 C 94.5625 -40.238281 95.859375 -48.0625 95.859375 -56.8125 C 95.859375 -65.695312 94.5625 -73.550781 91.96875 -80.375 C 89.382812 -87.195312 85.484375 -92.535156 80.265625 -96.390625 C 75.054688 -100.242188 68.492188 -102.171875 60.578125 -102.171875 C 52.460938 -102.171875 45.742188 -100.171875 40.421875 -96.171875 C 35.097656 -92.179688 31.160156 -86.753906 28.609375 -79.890625 C 26.054688 -73.035156 24.78125 -65.34375 24.78125 -56.8125 C 24.78125 -48.195312 26.09375 -40.441406 28.71875 -33.546875 C 31.34375 -26.648438 35.28125 -21.207031 40.53125 -17.21875 C 45.78125 -13.226562 52.359375 -11.234375 60.265625 -11.234375 Z M 94.1875 50.40625 L 94.1875 -28.03125 L 95.859375 -28.03125 L 95.859375 -113.40625 L 109.71875 -113.40625 L 109.71875 50.40625 Z M 94.1875 50.40625 "/></g></g></g></svg>