<svg xmlns="http://www.w3.org/2000/svg" xmlns:xlink="http://www.w3.org/1999/xlink" width="512" zoomAndPan="magnify" viewBox="0 0 384 383.999986" height="512" preserveAspectRatio="xMidYMid meet" version="1.0"><defs><g/><clipPath id="7834a90038"><path d="M 8.898438 8.898438 L 376.398438 8.898438 L 376.398438 376.398438 L 8.898438 376.398438 Z M 8.898438 8.898438 " clip-rule="nonzero"/></clipPath><clipPath id="8d4daa759d"><rect x="0" width="208" y="0" height="384"/></clipPath><clipPath id="be0500032c"><path d="M 286.152344 29.644531 L 352.902344 29.644531 L 352.902344 96.394531 L 286.152344 96.394531 Z M 286.152344 29.644531 " clip-rule="nonzero"/></clipPath></defs><g clip-path="url(#7834a90038)"><path fill="#292f33" d="M 376.398438 339.648438 C 376.398438 359.949219 359.949219 376.398438 339.648438 376.398438 L 45.648438 376.398438 C 25.351562 376.398438 8.898438 359.949219 8.898438 339.648438 L 8.898438 45.648438 C 8.898438 25.351562 25.351562 8.898438 45.648438 8.898438 L 339.648438 8.898438 C 359.949219 8.898438 376.398438 25.351562 376.398438 45.648438 Z M 376.398438 339.648438 " fill-opacity="1" fill-rule="nonzero"/></g><g transform="matrix(1, 0, 0, 1, 89, 0)"><g clip-path="url(#8d4daa759d)"><g fill="#ffffff" fill-opacity="1"><g transform="translate(0.660288, 322.887527)"><g><path d="M 21.546875 0 L 21.546875 -221.609375 L 63.40625 -221.609375 L 63.40625 -119.421875 L 147.734375 -221.609375 L 198.828125 -221.609375 L 106.1875 -112.34375 L 204.671875 0 L 151.734375 0 L 63.40625 -100.953125 L 63.40625 0 Z M 21.546875 0 "/></g></g></g></g></g><g clip-path="url(#be0500032c)"><path fill="#5b8c6f" d="M 352.808594 62.972656 C 352.808594 64.0625 352.753906 65.152344 352.648438 66.238281 C 352.539062 67.324219 352.378906 68.402344 352.167969 69.472656 C 351.953125 70.542969 351.6875 71.601562 351.371094 72.644531 C 351.054688 73.691406 350.6875 74.714844 350.269531 75.726562 C 349.851562 76.734375 349.386719 77.71875 348.871094 78.683594 C 348.355469 79.644531 347.796875 80.578125 347.191406 81.488281 C 346.582031 82.394531 345.933594 83.269531 345.242188 84.113281 C 344.550781 84.957031 343.816406 85.765625 343.046875 86.539062 C 342.273438 87.308594 341.464844 88.042969 340.621094 88.734375 C 339.777344 89.425781 338.902344 90.074219 337.996094 90.683594 C 337.085938 91.289062 336.152344 91.847656 335.191406 92.363281 C 334.226562 92.878906 333.242188 93.34375 332.234375 93.761719 C 331.226562 94.179688 330.199219 94.546875 329.152344 94.863281 C 328.109375 95.179688 327.050781 95.445312 325.980469 95.660156 C 324.910156 95.871094 323.832031 96.03125 322.746094 96.140625 C 321.660156 96.246094 320.570312 96.300781 319.480469 96.300781 C 318.386719 96.300781 317.296875 96.246094 316.210938 96.140625 C 315.125 96.03125 314.046875 95.871094 312.976562 95.660156 C 311.90625 95.445312 310.847656 95.179688 309.804688 94.863281 C 308.757812 94.546875 307.734375 94.179688 306.726562 93.761719 C 305.714844 93.34375 304.730469 92.878906 303.769531 92.363281 C 302.804688 91.847656 301.871094 91.289062 300.960938 90.683594 C 300.054688 90.074219 299.179688 89.425781 298.335938 88.734375 C 297.492188 88.042969 296.683594 87.308594 295.914062 86.539062 C 295.140625 85.765625 294.410156 84.957031 293.714844 84.113281 C 293.023438 83.269531 292.375 82.394531 291.769531 81.488281 C 291.160156 80.578125 290.601562 79.644531 290.085938 78.683594 C 289.570312 77.71875 289.105469 76.734375 288.6875 75.726562 C 288.269531 74.714844 287.902344 73.691406 287.585938 72.644531 C 287.269531 71.601562 287.003906 70.542969 286.792969 69.472656 C 286.578125 68.402344 286.417969 67.324219 286.3125 66.238281 C 286.203125 65.152344 286.152344 64.0625 286.152344 62.972656 C 286.152344 61.878906 286.203125 60.789062 286.3125 59.703125 C 286.417969 58.617188 286.578125 57.539062 286.792969 56.46875 C 287.003906 55.398438 287.269531 54.339844 287.585938 53.296875 C 287.902344 52.25 288.269531 51.226562 288.6875 50.21875 C 289.105469 49.207031 289.570312 48.222656 290.085938 47.261719 C 290.601562 46.296875 291.160156 45.363281 291.769531 44.453125 C 292.375 43.546875 293.023438 42.671875 293.714844 41.828125 C 294.410156 40.984375 295.140625 40.175781 295.914062 39.40625 C 296.683594 38.632812 297.492188 37.902344 298.335938 37.207031 C 299.179688 36.515625 300.054688 35.867188 300.960938 35.257812 C 301.871094 34.652344 302.804688 34.09375 303.769531 33.578125 C 304.730469 33.0625 305.714844 32.597656 306.726562 32.179688 C 307.734375 31.761719 308.757812 31.394531 309.804688 31.078125 C 310.847656 30.761719 311.90625 30.496094 312.976562 30.285156 C 314.046875 30.070312 315.125 29.910156 316.210938 29.804688 C 317.296875 29.695312 318.386719 29.644531 319.480469 29.644531 C 320.570312 29.644531 321.660156 29.695312 322.746094 29.804688 C 323.832031 29.910156 324.910156 30.070312 325.980469 30.285156 C 327.050781 30.496094 328.109375 30.761719 329.152344 31.078125 C 330.199219 31.394531 331.226562 31.761719 332.234375 32.179688 C 333.242188 32.597656 334.226562 33.0625 335.191406 33.578125 C 336.152344 34.09375 337.085938 34.652344 337.996094 35.257812 C 338.902344 35.867188 339.777344 36.515625 340.621094 37.207031 C 341.464844 37.902344 342.273438 38.632812 343.046875 39.40625 C 343.816406 40.175781 344.550781 40.984375 345.242188 41.828125 C 345.933594 42.671875 346.582031 43.546875 347.191406 44.453125 C 347.796875 45.363281 348.355469 46.296875 348.871094 47.261719 C 349.386719 48.222656 349.851562 49.207031 350.269531 50.21875 C 350.6875 51.226562 351.054688 52.25 351.371094 53.296875 C 351.6875 54.339844 351.953125 55.398438 352.167969 56.46875 C 352.378906 57.539062 352.539062 58.617188 352.648438 59.703125 C 352.753906 60.789062 352.808594 61.878906 352.808594 62.972656 Z M 352.808594 62.972656 " fill-opacity="1" fill-rule="nonzero"/></g></svg>